# xmcd CD database file
#
# Track frame offsets:
#	150
#	13350
#	27017
#	39175
#	50162
#	61207
#	72460
#	82442
#	95475
#	110040
#	121075
#	130795
#	142585
#	154520
#	164700
#	177685
#	189532
#	202157
#	211527
#	225022
#	243325
#	254187
#	267547
#	280562
#	290945
#	303482
#	317200
#
# Disc length: 4345 seconds
#
# Revision: 0
# Processed by: cddbd v1.5.2PL0 Copyright (c) Steve Scherf et al.
# Submitted via: CDex 1.70beta2
#
DISCID=9910f71b
DTITLE=Jones Classic Country - Jones Classic Country CCC-605
DYEAR=0000
DGENRE=Country
TTITLE0=Tom T Hall/Faster Horses (The Cowboy And the Poet)
TTITLE1=Lefty Frizzell/If You've Got The Money I've Got The Time
TTITLE2=Charlie Walker/Don't Squeeze My Sharmon
TTITLE3=Tommy Overstreet/Ann (Don't Go Runnin')
TTITLE4=Charley Pride/I'm Just Me
TTITLE5=Buck Owens/Above and Beyond
TTITLE6=Jimmy Dean/First Thing Every Morning (And The Last Thing Every Night)
TTITLE7=Nat Stuckey/Sweet Thang
TTITLE8=Conway Twitty/Fifteen Years Ago
TTITLE9=Porter Wagoner and Dolly Parton/Just Someone I Used To Know
TTITLE10=Bob Luman/Let's Think About Living
TTITLE11=Wynn Stewart/It's Such A Pretty World Today
TTITLE12=Marty Robbins/Ribbon Of Darkness
TTITLE13=Ned Miller/From A Jack To A King
TTITLE14=Mickey Gilley/Room Full Of Roses
TTITLE15=Sammi Smith/Help Me Make It Through The Night
TTITLE16=Roy Clark/Tip Of My Fingers
TTITLE17=Webb Pierce/Honky Tonk Song
TTITLE18=Hank Williams Sr/Hey Good Lookin'
TTITLE19=Marty Robbins/Big Iron
TTITLE20=Jim Reeves/He'll Have To Go
TTITLE21=Hank Williams Sr/Jambalaya
TTITLE22=Elvis Presley/Don't Cry Daddy
TTITLE23=Loretta Lynn/Flat City
TTITLE24=Johnny Cash/Understand Your Man
TTITLE25=David Houston/Almost Persuaded
TTITLE26=Don Gibson/Blue, Blue Day
EXTD=YEAR: 0000
EXTT0=
EXTT1=
EXTT2=
EXTT3=
EXTT4=
EXTT5=
EXTT6=
EXTT7=
EXTT8=
EXTT9=
EXTT10=
EXTT11=
EXTT12=
EXTT13=
EXTT14=
EXTT15=
EXTT16=
EXTT17=
EXTT18=
EXTT19=
EXTT20=
EXTT21=
EXTT22=
EXTT23=
EXTT24=
EXTT25=
EXTT26=
PLAYORDER=
